<?xml version="1.0" encoding="UTF-8" standalone="no"?>
<!DOCTYPE svg PUBLIC "-//W3C//DTD SVG 1.1//EN"
 "http://www.w3.org/Graphics/SVG/1.1/DTD/svg11.dtd">
<!-- Generated by graphviz version 2.38.0 (20140413.2041)
 -->
<!-- Title: models_diagram Pages: 1 -->
<svg width="918pt" height="318pt"
 viewBox="0.00 0.00 918.00 318.00" xmlns="http://www.w3.org/2000/svg" xmlns:xlink="http://www.w3.org/1999/xlink">
<g id="graph0" class="graph" transform="scale(1 1) rotate(0) translate(4 314)">
<title>models_diagram</title>
<polygon fill="none" stroke="none" points="-4,4 -4,-314 914,-314 914,4 -4,4"/>
<!-- _diagram_info -->
<g id="node1" class="node"><title>_diagram_info</title>
<text text-anchor="start" x="8" y="-281.1" font-family="Times,serif" font-size="13.00">Models diagram</text>
<text text-anchor="start" x="8" y="-267.1" font-family="Times,serif" font-size="13.00">Date: Jul 19 2017 &#45; 20:12</text>
<text text-anchor="start" x="8" y="-253.1" font-family="Times,serif" font-size="13.00">Migration version: 20170720000739</text>
<text text-anchor="start" x="8" y="-239.1" font-family="Times,serif" font-size="13.00">Generated by RailRoady 1.5.3</text>
<text text-anchor="start" x="8" y="-225.1" font-family="Times,serif" font-size="13.00">http://railroady.prestonlee.com</text>
</g>
<!-- ApplicationRecord -->
<g id="node2" class="node"><title>ApplicationRecord</title>
<ellipse fill="none" stroke="black" cx="309" cy="-256.5" rx="77.1866" ry="18"/>
<text text-anchor="middle" x="309" y="-252.8" font-family="Times,serif" font-size="14.00">ApplicationRecord</text>
</g>
<!-- User -->
<g id="node3" class="node"><title>User</title>
<path fill="none" stroke="black" d="M416,-203.5C416,-203.5 636,-203.5 636,-203.5 642,-203.5 648,-209.5 648,-215.5 648,-215.5 648,-297.5 648,-297.5 648,-303.5 642,-309.5 636,-309.5 636,-309.5 416,-309.5 416,-309.5 410,-309.5 404,-303.5 404,-297.5 404,-297.5 404,-215.5 404,-215.5 404,-209.5 410,-203.5 416,-203.5"/>
<text text-anchor="middle" x="526" y="-294.3" font-family="Times,serif" font-size="14.00">User</text>
<polyline fill="none" stroke="black" points="404,-286.5 648,-286.5 "/>
<text text-anchor="start" x="412" y="-271.3" font-family="Times,serif" font-size="14.00">id :bigint</text>
<text text-anchor="start" x="412" y="-256.3" font-family="Times,serif" font-size="14.00">name :character varying</text>
<text text-anchor="start" x="412" y="-241.3" font-family="Times,serif" font-size="14.00">email :character varying</text>
<text text-anchor="start" x="412" y="-226.3" font-family="Times,serif" font-size="14.00">created_at :timestamp without time zone</text>
<text text-anchor="start" x="412" y="-211.3" font-family="Times,serif" font-size="14.00">updated_at :timestamp without time zone</text>
</g>
<!-- Item -->
<g id="node4" class="node"><title>Item</title>
<path fill="none" stroke="black" d="M547,-0.5C547,-0.5 767,-0.5 767,-0.5 773,-0.5 779,-6.5 779,-12.5 779,-12.5 779,-154.5 779,-154.5 779,-160.5 773,-166.5 767,-166.5 767,-166.5 547,-166.5 547,-166.5 541,-166.5 535,-160.5 535,-154.5 535,-154.5 535,-12.5 535,-12.5 535,-6.5 541,-0.5 547,-0.5"/>
<text text-anchor="middle" x="657" y="-151.3" font-family="Times,serif" font-size="14.00">Item</text>
<polyline fill="none" stroke="black" points="535,-143.5 779,-143.5 "/>
<text text-anchor="start" x="543" y="-128.3" font-family="Times,serif" font-size="14.00">id :bigint</text>
<text text-anchor="start" x="543" y="-113.3" font-family="Times,serif" font-size="14.00">name :character varying</text>
<text text-anchor="start" x="543" y="-98.3" font-family="Times,serif" font-size="14.00">serialnumber :integer</text>
<text text-anchor="start" x="543" y="-83.3" font-family="Times,serif" font-size="14.00">size :integer</text>
<text text-anchor="start" x="543" y="-68.3" font-family="Times,serif" font-size="14.00">description :character varying(255)</text>
<text text-anchor="start" x="543" y="-53.3" font-family="Times,serif" font-size="14.00">category_id :bigint</text>
<text text-anchor="start" x="543" y="-38.3" font-family="Times,serif" font-size="14.00">created_at :timestamp without time zone</text>
<text text-anchor="start" x="543" y="-23.3" font-family="Times,serif" font-size="14.00">updated_at :timestamp without time zone</text>
<text text-anchor="start" x="543" y="-8.3" font-family="Times,serif" font-size="14.00">user_id :bigint</text>
</g>
<!-- User&#45;&gt;Item -->
<g id="edge1" class="edge"><title>User&#45;&gt;Item</title>
<path fill="none" stroke="#bb8820" d="M571.083,-196.651C576.529,-189.542 582.185,-182.159 587.877,-174.729"/>
<ellipse fill="none" stroke="#bb8820" cx="568.449" cy="-200.09" rx="4.00002" ry="4.00002"/>
<polygon fill="#bb8820" stroke="#bb8820" points="587.979,-174.597 597.632,-169.395 591.019,-170.627 594.06,-166.658 594.06,-166.658 594.06,-166.658 591.019,-170.627 590.488,-163.922 587.979,-174.597 587.979,-174.597"/>
</g>
<!-- Category -->
<g id="node5" class="node"><title>Category</title>
<path fill="none" stroke="black" d="M678,-211C678,-211 898,-211 898,-211 904,-211 910,-217 910,-223 910,-223 910,-290 910,-290 910,-296 904,-302 898,-302 898,-302 678,-302 678,-302 672,-302 666,-296 666,-290 666,-290 666,-223 666,-223 666,-217 672,-211 678,-211"/>
<text text-anchor="middle" x="788" y="-286.8" font-family="Times,serif" font-size="14.00">Category</text>
<polyline fill="none" stroke="black" points="666,-279 910,-279 "/>
<text text-anchor="start" x="674" y="-263.8" font-family="Times,serif" font-size="14.00">id :bigint</text>
<text text-anchor="start" x="674" y="-248.8" font-family="Times,serif" font-size="14.00">name :character varying</text>
<text text-anchor="start" x="674" y="-233.8" font-family="Times,serif" font-size="14.00">created_at :timestamp without time zone</text>
<text text-anchor="start" x="674" y="-218.8" font-family="Times,serif" font-size="14.00">updated_at :timestamp without time zone</text>
</g>
<!-- Category&#45;&gt;Item -->
<g id="edge2" class="edge"><title>Category&#45;&gt;Item</title>
<path fill="none" stroke="#7391b3" d="M748.619,-204.095C741.446,-194.732 733.774,-184.716 726.035,-174.615"/>
<ellipse fill="none" stroke="#7391b3" cx="751.149" cy="-207.396" rx="4.00002" ry="4.00002"/>
<polygon fill="#7391b3" stroke="#7391b3" points="725.905,-174.444 723.395,-163.769 722.864,-170.475 719.823,-166.506 719.823,-166.506 719.823,-166.506 722.864,-170.475 716.251,-169.242 725.905,-174.444 725.905,-174.444"/>
</g>
</g>
</svg>
