<?xml version="1.0" encoding="UTF-8" standalone="no"?>
<!DOCTYPE svg PUBLIC "-//W3C//DTD SVG 1.1//EN"
 "http://www.w3.org/Graphics/SVG/1.1/DTD/svg11.dtd">
<!-- Generated by graphviz version 2.38.0 (20140413.2041)
 -->
<!-- Title: models_diagram Pages: 1 -->
<svg width="571pt" height="158pt"
 viewBox="0.00 0.00 570.90 158.00" xmlns="http://www.w3.org/2000/svg" xmlns:xlink="http://www.w3.org/1999/xlink">
<g id="graph0" class="graph" transform="scale(1 1) rotate(0) translate(4 154)">
<title>models_diagram</title>
<polygon fill="none" stroke="none" points="-4,4 -4,-154 566.896,-154 566.896,4 -4,4"/>
<!-- _diagram_info -->
<g id="node1" class="node"><title>_diagram_info</title>
<text text-anchor="start" x="8" y="-135.6" font-family="Times,serif" font-size="13.00">Models diagram</text>
<text text-anchor="start" x="8" y="-121.6" font-family="Times,serif" font-size="13.00">Date: Jul 19 2017 &#45; 20:21</text>
<text text-anchor="start" x="8" y="-107.6" font-family="Times,serif" font-size="13.00">Migration version: 20170720000739</text>
<text text-anchor="start" x="8" y="-93.6" font-family="Times,serif" font-size="13.00">Generated by RailRoady 1.5.3</text>
<text text-anchor="start" x="8" y="-79.6" font-family="Times,serif" font-size="13.00">http://railroady.prestonlee.com</text>
</g>
<!-- ApplicationRecord -->
<g id="node2" class="node"><title>ApplicationRecord</title>
<ellipse fill="none" stroke="black" cx="309" cy="-111" rx="77.1866" ry="18"/>
<text text-anchor="middle" x="309" y="-107.3" font-family="Times,serif" font-size="14.00">ApplicationRecord</text>
</g>
<!-- User -->
<g id="node3" class="node"><title>User</title>
<ellipse fill="none" stroke="black" cx="432" cy="-111" rx="27.0966" ry="18"/>
<text text-anchor="middle" x="432" y="-107.3" font-family="Times,serif" font-size="14.00">User</text>
</g>
<!-- Item -->
<g id="node4" class="node"><title>Item</title>
<ellipse fill="none" stroke="black" cx="476" cy="-18" rx="27.0966" ry="18"/>
<text text-anchor="middle" x="476" y="-14.3" font-family="Times,serif" font-size="14.00">Item</text>
</g>
<!-- User&#45;&gt;Item -->
<g id="edge1" class="edge"><title>User&#45;&gt;Item</title>
<path fill="none" stroke="#e22b88" d="M443.454,-86.3102C449.614,-73.5711 457.218,-57.8442 463.527,-44.7965"/>
<ellipse fill="none" stroke="#e22b88" cx="441.608" cy="-90.1299" rx="4.00002" ry="4.00002"/>
<polygon fill="#e22b88" stroke="#e22b88" points="463.7,-44.4378 472.105,-37.3938 465.877,-39.9364 468.053,-35.4349 468.053,-35.4349 468.053,-35.4349 465.877,-39.9364 464.002,-33.4761 463.7,-44.4378 463.7,-44.4378"/>
</g>
<!-- Category -->
<g id="node5" class="node"><title>Category</title>
<ellipse fill="none" stroke="black" cx="520" cy="-111" rx="42.7926" ry="18"/>
<text text-anchor="middle" x="520" y="-107.3" font-family="Times,serif" font-size="14.00">Category</text>
</g>
<!-- Category&#45;&gt;Item -->
<g id="edge2" class="edge"><title>Category&#45;&gt;Item</title>
<path fill="none" stroke="#73b1ab" d="M508.336,-85.8765C502.177,-73.139 494.62,-57.509 488.36,-44.5631"/>
<ellipse fill="none" stroke="#73b1ab" cx="510.188" cy="-89.7081" rx="4.00002" ry="4.00002"/>
<polygon fill="#73b1ab" stroke="#73b1ab" points="488.224,-44.2817 487.922,-33.3199 486.048,-39.7802 483.871,-35.2788 483.871,-35.2788 483.871,-35.2788 486.048,-39.7802 479.82,-37.2377 488.224,-44.2817 488.224,-44.2817"/>
</g>
</g>
</svg>
